<svg width="18" height="18" viewBox="0 0 18 18" fill="none" xmlns="http://www.w3.org/2000/svg">
<path d="M5.57143 8.00011C5.01914 8.00011 4.57143 8.44783 4.57143 9.00011C4.57143 9.5524 5.01914 10.0001 5.57143 10.0001V8.00011ZM12.4286 10.0001C12.9809 10.0001 13.4286 9.5524 13.4286 9.00011C13.4286 8.44783 12.9809 8.00011 12.4286 8.00011V10.0001ZM8 12.4286C8 12.9809 8.44772 13.4286 9 13.4286C9.55229 13.4286 10 12.9809 10 12.4286H8ZM10 5.57143C10 5.01914 9.55229 4.57143 9 4.57143C8.44772 4.57143 8 5.01914 8 5.57143H10ZM16 9C16 12.866 12.866 16 9 16V18C13.9706 18 18 13.9706 18 9H16ZM9 16C5.13401 16 2 12.866 2 9H0C0 13.9706 4.02944 18 9 18V16ZM2 9C2 5.13401 5.13401 2 9 2V0C4.02944 0 0 4.02944 0 9H2ZM9 2C12.866 2 16 5.13401 16 9H18C18 4.02944 13.9706 0 9 0V2ZM5.57143 10.0001H9V8.00011H5.57143V10.0001ZM9 10.0001H12.4286V8.00011H9V10.0001ZM10 12.4286V9.00011H8V12.4286H10ZM10 9.00011V5.57143H8V9.00011H10Z" stroke="#C32A2A" fill="#2D2926"/>
</svg>
