<svg width="15" height="15" viewBox="0 0 15 15" fill="none" xmlns="http://www.w3.org/2000/svg">
<path d="M14 7.0944L7.8539 12.8909C7.10095 13.6011 6.07974 14 5.01492 14C3.9501 14 2.92889 13.6011 2.17594 12.8909C1.423 12.1808 1 11.2177 1 10.2134C1 9.20917 1.423 8.24604 2.17594 7.53592L8.32204 1.73937C8.82401 1.26596 9.50481 1 10.2147 1C10.9246 1 11.6054 1.26596 12.1073 1.73937C12.6093 2.21279 12.8913 2.85487 12.8913 3.52438C12.8913 4.19389 12.6093 4.83598 12.1073 5.30939L5.95456 11.1059C5.70358 11.3426 5.36317 11.4756 5.00823 11.4756C4.65329 11.4756 4.31289 11.3426 4.06191 11.1059C3.81093 10.8692 3.66993 10.5482 3.66993 10.2134C3.66993 9.87867 3.81093 9.55763 4.06191 9.32092L9.73986 3.97221" stroke="#2D2926" stroke-width="1.5" stroke-linecap="round" stroke-linejoin="round"/>
</svg>
