<svg width="16" height="16" viewBox="0 0 16 16" fill="none" xmlns="http://www.w3.org/2000/svg">
<path d="M5 7.2501C4.58579 7.2501 4.25 7.58589 4.25 8.0001C4.25 8.41431 4.58579 8.7501 5 8.7501V7.2501ZM11 8.7501C11.4142 8.7501 11.75 8.41431 11.75 8.0001C11.75 7.58589 11.4142 7.2501 11 7.2501V8.7501ZM7.25 11C7.25 11.4142 7.58579 11.75 8 11.75C8.41421 11.75 8.75 11.4142 8.75 11H7.25ZM8.75 5C8.75 4.58579 8.41421 4.25 8 4.25C7.58579 4.25 7.25 4.58579 7.25 5H8.75ZM14.25 8C14.25 11.4518 11.4518 14.25 8 14.25V15.75C12.2802 15.75 15.75 12.2802 15.75 8H14.25ZM8 14.25C4.54822 14.25 1.75 11.4518 1.75 8H0.25C0.25 12.2802 3.71979 15.75 8 15.75V14.25ZM1.75 8C1.75 4.54822 4.54822 1.75 8 1.75V0.25C3.71979 0.25 0.25 3.71979 0.25 8H1.75ZM8 1.75C11.4518 1.75 14.25 4.54822 14.25 8H15.75C15.75 3.71979 12.2802 0.25 8 0.25V1.75ZM5 8.7501H8V7.2501H5V8.7501ZM8 8.7501H11V7.2501H8V8.7501ZM8.75 11V8.0001H7.25V11H8.75ZM8.75 8.0001V5H7.25V8.0001H8.75Z" fill="#2D2926"/>
</svg>
