<svg width="16" height="16" viewBox="0 0 16 16" fill="none" xmlns="http://www.w3.org/2000/svg">
<path d="M7.29788 2.7388H2.65929C2.3078 2.7388 1.9707 2.87843 1.72216 3.12698C1.47361 3.37552 1.33398 3.71262 1.33398 4.06411V13.3413C1.33398 13.6928 1.47361 14.0299 1.72216 14.2784C1.9707 14.527 2.3078 14.6666 2.65929 14.6666H11.9365C12.288 14.6666 12.625 14.527 12.8736 14.2784C13.1221 14.0299 13.2618 13.6928 13.2618 13.3413V8.7027M12.2678 1.74497C12.5314 1.48135 12.8889 1.33325 13.2618 1.33325C13.6346 1.33325 13.9921 1.48135 14.2557 1.74497C14.5194 2.00859 14.6675 2.36614 14.6675 2.73895C14.6675 3.11177 14.5194 3.46932 14.2557 3.73294L7.96053 10.0282L5.30991 10.6908L5.97257 8.04019L12.2678 1.74497Z" stroke="#2D2926" stroke-width="1.33333" stroke-linecap="round" stroke-linejoin="round"/>
</svg>
