<svg width="16" height="13" viewBox="0 0 16 13" fill="none" xmlns="http://www.w3.org/2000/svg">
<path d="M15 10.6875C15.4142 10.6875 15.75 10.3517 15.75 9.9375C15.75 9.52329 15.4142 9.1875 15 9.1875V10.6875ZM1 2.3125C0.585786 2.3125 0.25 2.64829 0.25 3.0625C0.25 3.47671 0.585786 3.8125 1 3.8125V2.3125ZM5.2 10.6875H15V9.1875H5.2V10.6875ZM4.45 9.9375C4.45 10.6497 3.85838 11.25 3.1 11.25V12.75C4.66121 12.75 5.95 11.5035 5.95 9.9375H4.45ZM3.1 11.25C2.34162 11.25 1.75 10.6497 1.75 9.9375H0.25C0.25 11.5035 1.53879 12.75 3.1 12.75V11.25ZM1.75 9.9375C1.75 9.22531 2.34162 8.625 3.1 8.625V7.125C1.53879 7.125 0.25 8.37152 0.25 9.9375H1.75ZM3.1 8.625C3.85838 8.625 4.45 9.22531 4.45 9.9375H5.95C5.95 8.37152 4.66121 7.125 3.1 7.125V8.625ZM1 3.8125H10.8V2.3125H1V3.8125ZM14.25 3.0625C14.25 3.77469 13.6584 4.375 12.9 4.375V5.875C14.4612 5.875 15.75 4.62848 15.75 3.0625H14.25ZM12.9 4.375C12.1416 4.375 11.55 3.77469 11.55 3.0625H10.05C10.05 4.62848 11.3388 5.875 12.9 5.875V4.375ZM11.55 3.0625C11.55 2.35031 12.1416 1.75 12.9 1.75V0.25C11.3388 0.25 10.05 1.49652 10.05 3.0625H11.55ZM12.9 1.75C13.6584 1.75 14.25 2.35031 14.25 3.0625H15.75C15.75 1.49652 14.4612 0.25 12.9 0.25V1.75Z" fill="#2D2926"/>
</svg>
