<svg width="15" height="9" viewBox="0 0 15 9" fill="none" xmlns="http://www.w3.org/2000/svg">
<path d="M1.53125 0.890625V8H0.305664V0.890625H1.53125ZM4.33027 0.890625V8H3.10469V0.890625H4.33027ZM7.23066 4.00098V4.97266H4.01777V4.00098H7.23066ZM7.63594 0.890625V1.86719H4.01777V0.890625H7.63594ZM12.8617 5.68555H14.0824C14.0434 6.15104 13.9132 6.56608 13.6918 6.93066C13.4704 7.29199 13.1596 7.57682 12.7592 7.78516C12.3588 7.99349 11.8721 8.09766 11.2992 8.09766C10.8598 8.09766 10.4643 8.01953 10.1127 7.86328C9.76113 7.70378 9.46003 7.47917 9.20938 7.18945C8.95872 6.89648 8.76667 6.54329 8.6332 6.12988C8.503 5.71647 8.43789 5.25423 8.43789 4.74316V4.15234C8.43789 3.64128 8.50462 3.17904 8.63809 2.76562C8.77481 2.35221 8.97012 1.99902 9.22402 1.70605C9.47793 1.40983 9.78229 1.18359 10.1371 1.02734C10.4952 0.871094 10.8972 0.792969 11.3432 0.792969C11.9096 0.792969 12.3881 0.897135 12.7787 1.10547C13.1693 1.3138 13.4721 1.60189 13.6869 1.96973C13.905 2.33757 14.0385 2.75911 14.0873 3.23438H12.8666C12.834 2.92839 12.7624 2.66634 12.6518 2.44824C12.5443 2.23014 12.3848 2.06413 12.1732 1.9502C11.9617 1.83301 11.685 1.77441 11.3432 1.77441C11.0632 1.77441 10.8191 1.8265 10.6107 1.93066C10.4024 2.03483 10.2283 2.18783 10.0883 2.38965C9.94831 2.59147 9.84251 2.84049 9.7709 3.13672C9.70254 3.42969 9.66836 3.76497 9.66836 4.14258V4.74316C9.66836 5.10124 9.69928 5.42676 9.76113 5.71973C9.82624 6.00944 9.92389 6.25846 10.0541 6.4668C10.1876 6.67513 10.3568 6.83626 10.5619 6.9502C10.767 7.06413 11.0128 7.12109 11.2992 7.12109C11.6475 7.12109 11.9291 7.06576 12.1439 6.95508C12.362 6.8444 12.5264 6.68327 12.6371 6.47168C12.751 6.25684 12.8259 5.99479 12.8617 5.68555Z" fill="#C32A2A"/>
</svg>
