<svg width="19" height="9" viewBox="0 0 19 9" fill="none" xmlns="http://www.w3.org/2000/svg">
<path d="M4.14746 5.86621V0.890625H5.36816V5.86621C5.36816 6.33822 5.26725 6.74023 5.06543 7.07227C4.86361 7.4043 4.58854 7.6582 4.24023 7.83398C3.89193 8.00977 3.49642 8.09766 3.05371 8.09766C2.60124 8.09766 2.19922 8.02116 1.84766 7.86816C1.49935 7.71517 1.22591 7.48079 1.02734 7.16504C0.828776 6.84928 0.729492 6.44889 0.729492 5.96387H1.95996C1.95996 6.24382 2.00391 6.47005 2.0918 6.64258C2.18294 6.81185 2.3099 6.93555 2.47266 7.01367C2.63867 7.08854 2.83236 7.12598 3.05371 7.12598C3.2653 7.12598 3.45247 7.07878 3.61523 6.98438C3.78125 6.88672 3.91146 6.74512 4.00586 6.55957C4.10026 6.37077 4.14746 6.13965 4.14746 5.86621ZM9.52949 5.34863H7.67891V4.37695H9.52949C9.85176 4.37695 10.1122 4.32487 10.3107 4.2207C10.5093 4.11654 10.6542 3.97331 10.7453 3.79102C10.8397 3.60547 10.8869 3.39388 10.8869 3.15625C10.8869 2.93164 10.8397 2.72168 10.7453 2.52637C10.6542 2.3278 10.5093 2.16829 10.3107 2.04785C10.1122 1.92741 9.85176 1.86719 9.52949 1.86719H8.05488V8H6.8293V0.890625H9.52949C10.0796 0.890625 10.5467 0.988281 10.9309 1.18359C11.3182 1.37565 11.6128 1.64258 11.8146 1.98438C12.0165 2.32292 12.1174 2.71029 12.1174 3.14648C12.1174 3.60547 12.0165 3.99935 11.8146 4.32812C11.6128 4.6569 11.3182 4.90918 10.9309 5.08496C10.5467 5.26074 10.0796 5.34863 9.52949 5.34863ZM18.725 4.36719V7.08203C18.6241 7.21549 18.4662 7.36198 18.2514 7.52148C18.0398 7.67773 17.7582 7.81283 17.4066 7.92676C17.0551 8.04069 16.6173 8.09766 16.0932 8.09766C15.6472 8.09766 15.2387 8.02279 14.8676 7.87305C14.4965 7.72005 14.1758 7.49707 13.9057 7.2041C13.6387 6.91113 13.432 6.55469 13.2855 6.13477C13.1391 5.71159 13.0658 5.22982 13.0658 4.68945V4.19629C13.0658 3.65918 13.1326 3.18066 13.266 2.76074C13.4027 2.33757 13.598 1.97949 13.852 1.68652C14.1059 1.39355 14.4118 1.1722 14.7699 1.02246C15.1313 0.869466 15.5398 0.792969 15.9955 0.792969C16.5782 0.792969 17.06 0.890625 17.4408 1.08594C17.8249 1.27799 18.1212 1.54492 18.3295 1.88672C18.5378 2.22852 18.6697 2.61914 18.725 3.05859H17.5238C17.4848 2.8112 17.4083 2.58984 17.2943 2.39453C17.1837 2.19922 17.0242 2.04622 16.8158 1.93555C16.6107 1.82161 16.3438 1.76465 16.015 1.76465C15.7318 1.76465 15.4828 1.81836 15.268 1.92578C15.0531 2.0332 14.8741 2.19108 14.7309 2.39941C14.5909 2.60775 14.4851 2.86165 14.4135 3.16113C14.3419 3.46061 14.3061 3.80241 14.3061 4.18652V4.68945C14.3061 5.08008 14.3467 5.42676 14.4281 5.72949C14.5128 6.03223 14.6332 6.28776 14.7895 6.49609C14.949 6.70443 15.1426 6.8623 15.3705 6.96973C15.5984 7.07389 15.8555 7.12598 16.142 7.12598C16.4219 7.12598 16.6514 7.10319 16.8305 7.05762C17.0095 7.00879 17.1511 6.95182 17.2553 6.88672C17.3627 6.81836 17.4457 6.75326 17.5043 6.69141V5.28027H16.0248V4.36719H18.725Z" fill="#C32A2A"/>
</svg>
