<svg width="24" height="19" viewBox="0 0 24 19" fill="none" xmlns="http://www.w3.org/2000/svg">
<path d="M17.7895 9.2069L22.1189 7.01506C22.4844 6.82999 22.4844 6.30794 22.1189 6.12288L12.2258 1.11434C12.0839 1.04246 11.9161 1.04246 11.7742 1.11434L1.88113 6.12288C1.51559 6.30794 1.51559 6.82999 1.88113 7.01506L11.7742 12.0236C11.9161 12.0955 12.0839 12.0955 12.2258 12.0236L17.7895 9.2069ZM17.7895 9.2069L22.2423 11.9622C22.5743 12.1676 22.5533 12.6572 22.2051 12.8335L12.2258 17.8857C12.0839 17.9575 11.9161 17.9575 11.7742 17.8857L1.79364 12.8328C1.44565 12.6567 1.4244 12.1676 1.7558 11.9619L6.19444 9.2069" stroke="#817F7D" stroke-width="2"/>
</svg>
