<svg width="18" height="22" viewBox="0 0 18 22" fill="none" xmlns="http://www.w3.org/2000/svg">
<path d="M13 2.99992H15C15.5304 2.99992 16.0391 3.21063 16.4142 3.5857C16.7893 3.96078 17 4.46949 17 4.99992V18.9999C17 19.5304 16.7893 20.0391 16.4142 20.4141C16.0391 20.7892 15.5304 20.9999 15 20.9999H3C2.46957 20.9999 1.96086 20.7892 1.58579 20.4141C1.21071 20.0391 1 19.5304 1 18.9999V4.99992C1 4.46949 1.21071 3.96078 1.58579 3.5857C1.96086 3.21063 2.46957 2.99992 3 2.99992H5M6 1H12C12.5523 1 13 1.44772 13 2V4C13 4.55228 12.5523 5 12 5H6C5.44772 5 5 4.55228 5 4V2C5 1.44772 5.44772 1 6 1Z" stroke="#B3B3B3" stroke-width="2" stroke-linecap="round" stroke-linejoin="round"/>
</svg>
