<svg width="24" height="21" viewBox="0 0 24 21" fill="none" xmlns="http://www.w3.org/2000/svg">
<path d="M12.0008 7.99996V12M12.0008 16H12.0108M10.2908 2.85996L1.82075 17C1.64612 17.3024 1.55372 17.6453 1.55274 17.9945C1.55176 18.3437 1.64224 18.6871 1.81518 18.9905C1.98812 19.2939 2.23748 19.5467 2.53846 19.7238C2.83944 19.9009 3.18155 19.9961 3.53075 20H20.4708C20.82 19.9961 21.1621 19.9009 21.463 19.7238C21.764 19.5467 22.0134 19.2939 22.1863 18.9905C22.3593 18.6871 22.4497 18.3437 22.4488 17.9945C22.4478 17.6453 22.3554 17.3024 22.1808 17L13.7108 2.85996C13.5325 2.56607 13.2815 2.32308 12.9819 2.15444C12.6824 1.98581 12.3445 1.89722 12.0008 1.89722C11.657 1.89722 11.3191 1.98581 11.0196 2.15444C10.72 2.32308 10.469 2.56607 10.2908 2.85996Z" stroke="#817F7D" stroke-width="2" stroke-linecap="round" stroke-linejoin="round"/>
</svg>
