<svg width="24" height="22" viewBox="0 0 24 22" fill="none" xmlns="http://www.w3.org/2000/svg">
<path fill-rule="evenodd" clip-rule="evenodd" d="M9.39475 2.04259C10.5464 0.0271442 13.4525 0.0271453 14.6042 2.04259L23.1578 17.0115C24.3007 19.0114 22.8566 21.4999 20.5531 21.4999H3.44584C1.14237 21.4999 -0.30173 19.0114 0.84111 17.0115L9.39475 2.04259ZM12.8677 3.03487C12.4838 2.36305 11.5151 2.36305 11.1312 3.03487L2.5776 18.0037C2.19665 18.6704 2.67802 19.4999 3.44584 19.4999H20.5531C21.3209 19.4999 21.8023 18.6704 21.4214 18.0037L12.8677 3.03487Z" fill="#817F7D"/>
<path d="M12.9468 17.6362C12.9468 18.1634 12.5227 18.5908 11.9995 18.5908C11.4763 18.5908 11.0521 18.1634 11.0521 17.6362C11.0521 17.1091 11.4763 16.6817 11.9995 16.6817C12.5227 16.6817 12.9468 17.1091 12.9468 17.6362Z" fill="#817F7D"/>
<path d="M11.1191 7.44487C11.0829 6.93414 11.4875 6.49988 11.9995 6.49988C12.5115 6.49988 12.9161 6.93414 12.8799 7.44487L12.3376 15.094C12.325 15.2714 12.1774 15.409 11.9995 15.409C11.8216 15.409 11.6739 15.2714 11.6614 15.094L11.1191 7.44487Z" fill="#817F7D"/>
</svg>
