<svg width="19" height="22" viewBox="0 0 19 22" fill="none" xmlns="http://www.w3.org/2000/svg">
<path d="M11.002 1H3.00195C2.47152 1 1.96281 1.21071 1.58774 1.58579C1.21267 1.96086 1.00195 2.46957 1.00195 3V19C1.00195 19.5304 1.21267 20.0391 1.58774 20.4142C1.96281 20.7893 2.47152 21 3.00195 21H15.002C15.5324 21 16.0411 20.7893 16.4162 20.4142C16.7912 20.0391 17.002 19.5304 17.002 19V7M11.002 1L17.002 7M11.002 1V7H17.002M13.002 12H5.00195M13.002 16H5.00195M7.00195 7.99951H5.00195" stroke="#B3B3B3" stroke-width="2" stroke-linecap="round" stroke-linejoin="round"/>
</svg>
