<svg width="14" height="16" viewBox="0 0 14 16" fill="none" xmlns="http://www.w3.org/2000/svg">
<path d="M1 4.00049H2.33333M2.33333 4.00049H13M2.33333 4.00049L2.33398 13.334C2.33398 13.6876 2.47446 14.0267 2.72451 14.2768C2.97456 14.5268 3.3137 14.6673 3.66732 14.6673H10.334C10.6876 14.6673 11.0267 14.5268 11.2768 14.2768C11.5268 14.0267 11.6673 13.6876 11.6673 13.334V4.00065M4.33398 4.00065V2.66732C4.33398 2.3137 4.47446 1.97456 4.72451 1.72451C4.97456 1.47446 5.3137 1.33398 5.66732 1.33398H8.33398C8.68761 1.33398 9.02674 1.47446 9.27679 1.72451C9.52684 1.97456 9.66732 2.3137 9.66732 2.66732V4.00065" stroke="#C32A2A" stroke-width="1.5" stroke-linecap="round" stroke-linejoin="round"/>
</svg>
