<svg width="22" height="17" viewBox="0 0 22 17" fill="none" xmlns="http://www.w3.org/2000/svg">
<path d="M16.4 13.3606C14.846 14.4268 12.9537 15.0175 11 15.0463C4.63636 15.0463 1 8.49993 1 8.49993C2.13081 6.60304 3.69921 4.94576 5.6 3.63926M9.09091 2.14997C9.71667 2.01812 10.3573 1.95222 11 1.95358C17.3636 1.95358 21 8.49993 21 8.49993C20.4482 9.42919 19.7901 10.3041 19.0364 11.1103M12.9273 10.2347C12.6776 10.4759 12.3765 10.6694 12.042 10.8035C11.7074 10.9377 11.3463 11.0099 10.9801 11.0157C10.6139 11.0215 10.2501 10.9609 9.91055 10.8374C9.57096 10.7139 9.26247 10.5301 9.0035 10.297C8.74452 10.0639 8.54036 9.78625 8.40319 9.48057C8.26602 9.17489 8.19866 8.84748 8.20512 8.51786C8.21158 8.18824 8.29174 7.86317 8.4408 7.56204C8.58986 7.26091 8.80478 6.98989 9.07273 6.76515M2.66992 1L19.3348 16.0004" stroke="#2D2926" stroke-width="2" stroke-linecap="round" stroke-linejoin="round"/>
</svg>
